# xmcd CD database file
#
# Track frame offsets:
#	150
#	27863
#	41209
#	67875
#	86927
#	116334
#	137772
#	151213
#	182725
#
# Disc length: 2745 seconds
#
# Revision: 0
# Processed by: cddbd v1.5.2PL0 Copyright (c) Steve Scherf et al.
# Submitted via: CDex 1.70beta2
#
DISCID=730ab709
DTITLE=Karen Mantler - Business Is Bad
DYEAR=2014
DGENRE=Jazz
TTITLE0=Catch As Catch Can
TTITLE1=My Magic Pencil (Wrote This Melody)  
TTITLE2=Speak French 
TTITLE3=Wintertime
TTITLE4=Surviving You
TTITLE5=Business Is Bad
TTITLE6=I Can't Afford My Lawyer
TTITLE7=My Solo 
TTITLE8=That Damn Volcano
EXTD=YEAR: 2014
EXTT0=
EXTT1=
EXTT2=
EXTT3=
EXTT4=
EXTT5=
EXTT6=
EXTT7=
EXTT8=
PLAYORDER=
